<svg xmlns="http://www.w3.org/2000/svg" viewBox="0 0 96 64" width="384" height="256" shape-rendering="crispEdges" role="img" aria-label="Pixel-art window onto a partly cloudy night sky">
  <!-- room: preserved from the current assets -->
  <rect width="96" height="64" fill="#1b1f33"/>
  <rect x="0" y="46" width="96" height="18" fill="#14182a"/>

  <!-- window frame: preserved from the current assets -->
  <rect x="3" y="4" width="90" height="40" fill="#3a4266"/>

  <!-- ====== weather-controlled region: PARTLY (night) ====== -->
  <g id="weather-window">
    <clipPath id="clip-weather"><rect x="5" y="6" width="86" height="36"/></clipPath>
    <g clip-path="url(#clip-weather)">
      <rect x="5" y="5" width="86" height="10" fill="#131d40"/>
      <rect x="5" y="15" width="86" height="9" fill="#1b264e"/>
      <rect x="5" y="24" width="86" height="10" fill="#243360"/>
      <rect x="5" y="34" width="86" height="8" fill="#2f3f70"/>
      <g id="weather-art">

        <!-- moon -->
        <rect x="26" y="7" width="6" height="12" fill="#eef2fb"/>
        <rect x="24" y="9" width="10" height="8" fill="#eef2fb"/>
        <rect x="25" y="8" width="8" height="10" fill="#eef2fb"/>
        <rect x="27" y="10" width="2" height="2" fill="#d3dcee"/>
        <rect x="30" y="13" width="2" height="2" fill="#d3dcee"/>

        <!-- stars in clear patches (twinkling) -->
        <rect x="50" y="9"  width="1" height="1" fill="#eaf0ff"><animate attributeName="opacity" values="1;0.3;1" dur="2.8s" repeatCount="indefinite"/></rect>
        <rect x="63" y="11" width="1" height="1" fill="#cfe0ff"><animate attributeName="opacity" values="0.85;0.2;0.85" dur="3.4s" begin="-0.6s" repeatCount="indefinite"/></rect>
        <rect x="18" y="20" width="1" height="1" fill="#cfe0ff" opacity="0.8"/>
        <rect x="44" y="22" width="1" height="1" fill="#eaf0ff"><animate attributeName="opacity" values="0.8;0.3;0.8" dur="3.1s" begin="-1.2s" repeatCount="indefinite"/></rect>
        <rect x="84" y="10" width="1" height="1" fill="#ffffff"/>

        <!-- clouds (moonlit blue-grey) -->
        <g>
          <animateTransform attributeName="transform" type="translate" values="0 0;1 0;2 0;3 0;2 0;1 0;0 0" dur="12s" calcMode="discrete" repeatCount="indefinite"/>
          <rect x="36" y="11" width="21" height="1" fill="#7c8bb0"/>
          <rect x="33" y="12" width="27" height="1" fill="#6b7aa0"/>
          <rect x="31" y="13" width="31" height="1" fill="#59688e"/>
          <rect x="32" y="14" width="29" height="1" fill="#47547a"/>
          <rect x="35" y="15" width="23" height="1" fill="#374262"/>

          <rect x="73" y="13" width="9" height="1" fill="#7c8bb0"/>
          <rect x="71" y="14" width="13" height="1" fill="#6b7aa0"/>
          <rect x="70" y="15" width="15" height="1" fill="#59688e"/>
          <rect x="72" y="16" width="11" height="1" fill="#47547a"/>
        </g>

        <g>
          <animateTransform attributeName="transform" type="translate" values="0 0;-1 0;-2 0;-3 0;-2 0;-1 0;0 0" dur="15s" calcMode="discrete" repeatCount="indefinite"/>
          <rect x="12" y="27" width="8" height="1" fill="#6b7aa0"/>
          <rect x="10" y="28" width="12" height="1" fill="#59688e"/>
          <rect x="9" y="29" width="14" height="1" fill="#47547a"/>
          <rect x="11" y="30" width="10" height="1" fill="#374262"/>
        </g>

        <!-- distant horizon -->
        <path d="M5 35 L13 32 L20 34 L28 30 L37 33 L46 31 L55 34 L64 31 L73 33 L91 29 L91 42 L5 42 Z" fill="#22405f"/>
        <path d="M5 38 L12 36 L22 37 L30 34 L40 37 L50 35 L62 38 L72 35 L83 37 L91 34 L91 42 L5 42 Z" fill="#173350"/>
        <!-- tiny skyline -->
        <rect x="9" y="32" width="3" height="10" fill="#24405f"/>
        <rect x="14" y="35" width="4" height="7" fill="#31506e"/>
        <rect x="22" y="31" width="4" height="11" fill="#24405f"/>
        <rect x="31" y="34" width="3" height="8" fill="#31506e"/>
        <rect x="38" y="30" width="4" height="12" fill="#24405f"/>
        <rect x="51" y="33" width="3" height="9" fill="#31506e"/>
        <rect x="57" y="29" width="5" height="13" fill="#24405f"/>
        <rect x="65" y="34" width="4" height="8" fill="#31506e"/>
        <rect x="74" y="31" width="3" height="11" fill="#24405f"/>
        <rect x="82" y="35" width="5" height="7" fill="#31506e"/>
        <!-- water/low land band -->
        <rect x="5" y="39" width="86" height="3" fill="#1e3d60"/>
        <rect x="5" y="41" width="86" height="1" fill="#132a41"/>

      </g>
    </g>
  </g>
  <!-- ====== /weather-controlled region ====== -->

  <!-- window mullions: preserved from the current assets -->
  <rect x="25" y="6" width="2" height="36" fill="#3a4266"/>
  <rect x="47" y="6" width="2" height="36" fill="#3a4266"/>
  <rect x="69" y="6" width="2" height="36" fill="#3a4266"/>
  <rect x="5" y="23" width="86" height="2" fill="#3a4266"/>

  <!-- windowsill: preserved from the current assets -->
  <rect x="1" y="42" width="92" height="1" fill="#5a6796"/>
  <rect x="1" y="43" width="92" height="2" fill="#46507a"/>
  <rect x="1" y="45" width="92" height="1" fill="#2b3150"/>
</svg>