<svg xmlns="http://www.w3.org/2000/svg" viewBox="0 0 96 64" width="384" height="256" shape-rendering="crispEdges" role="img" aria-label="Pixel-art window onto a stormy sky with lightning">
  <style>
    /* Motion ported from SMIL to CSS so prefers-reduced-motion can freeze it.
       Whole-pixel steps keep shape-rendering:crispEdges sharp. */
    .drift    { animation: drift    var(--d,11s)  linear infinite; }
    .drift-l  { animation: drift-l  var(--d,13s)  linear infinite; }
    .twinkle  { animation: twinkle  var(--d,3s)   ease-in-out var(--b,0s) infinite; }
    .rain     { animation: rain     var(--d,0.7s) linear var(--b,0s) infinite; }
    .snow     { animation: snow     var(--d,3.6s) linear var(--b,0s) infinite; }
    .flash    { animation: flash    var(--d,6s)   linear var(--b,0s) infinite; }
    .flash-sky{ animation: flashsky var(--d,6s)   linear var(--b,0s) infinite; }
    @keyframes drift    { 0%,20%{transform:translateX(0)} 20.01%,40%{transform:translateX(1px)} 40.01%,60%{transform:translateX(2px)} 60.01%,80%{transform:translateX(1px)} 80.01%,100%{transform:translateX(0)} }
    @keyframes drift-l  { 0%,20%{transform:translateX(0)} 20.01%,40%{transform:translateX(-1px)} 40.01%,60%{transform:translateX(-2px)} 60.01%,80%{transform:translateX(-1px)} 80.01%,100%{transform:translateX(0)} }
    @keyframes twinkle  { 0%,100%{opacity:1} 50%{opacity:.3} }
    @keyframes rain     { from{transform:translateY(0)} to{transform:translateY(34px)} }
    @keyframes snow     { 0%{transform:translate(0,0)} 25%{transform:translate(1px,8px)} 50%{transform:translate(0,17px)} 75%{transform:translate(-1px,25px)} 100%{transform:translate(0,34px)} }
    @keyframes flash    { 0%,27%{opacity:0} 30%{opacity:1} 33%{opacity:.2} 36%{opacity:1} 39%,100%{opacity:0} }
    @keyframes flashsky { 0%,27%{opacity:0} 30%{opacity:.2} 33%{opacity:.05} 36%{opacity:.18} 39%,100%{opacity:0} }
    @media (prefers-reduced-motion: reduce) {
      .drift,.drift-l,.twinkle,.rain,.snow,.flash,.flash-sky { animation: none; }
    }
  </style>
  <!-- room: preserved from the current assets -->
  <rect width="96" height="64" fill="#1b1f33"/>
  <rect x="0" y="46" width="96" height="18" fill="#14182a"/>

  <!-- window frame: preserved from the current assets -->
  <rect x="3" y="4" width="90" height="40" fill="#3a4266"/>

  <!-- ====== weather-controlled region: STORM ====== -->
  <g id="weather-window">
    <clipPath id="clip-weather"><rect x="5" y="6" width="86" height="36"/></clipPath>
    <g clip-path="url(#clip-weather)">
      <rect x="5" y="5" width="86" height="9" fill="#222b49"/>
      <rect x="5" y="14" width="86" height="9" fill="#303a5d"/>
      <rect x="5" y="23" width="86" height="10" fill="#3d4a70"/>
      <rect x="5" y="33" width="86" height="9" fill="#4c5b7c"/>
      <g id="weather-art">

        <g class="drift" style="--d:12s">
          <rect x="9" y="7" width="27" height="1" fill="#a4aec2"/>
          <rect x="6" y="8" width="33" height="1" fill="#a4aec2"/>
          <rect x="4" y="9" width="37" height="1" fill="#7d88a4"/>
          <rect x="5" y="10" width="35" height="1" fill="#56617f"/>
          <rect x="8" y="11" width="29" height="1" fill="#394361"/>

          <rect x="36" y="6" width="33" height="1" fill="#a4aec2"/>
          <rect x="33" y="7" width="39" height="1" fill="#a4aec2"/>
          <rect x="31" y="8" width="43" height="1" fill="#7d88a4"/>
          <rect x="32" y="9" width="41" height="1" fill="#56617f"/>
          <rect x="35" y="10" width="35" height="1" fill="#394361"/>

          <rect x="65" y="13" width="22" height="1" fill="#a4aec2"/>
          <rect x="62" y="14" width="28" height="1" fill="#a4aec2"/>
          <rect x="60" y="15" width="32" height="1" fill="#7d88a4"/>
          <rect x="61" y="16" width="30" height="1" fill="#56617f"/>
          <rect x="64" y="17" width="24" height="1" fill="#394361"/>
        </g>

        <!-- lightning: bolt (upper diagonal → flash bar → lower diagonal), flashes -->
        <g class="flash" opacity="0">
        <rect x="51" y="8"  width="2" height="1" fill="#fff0a8"/>
        <rect x="50" y="9"  width="2" height="1" fill="#ffe27a"/>
        <rect x="49" y="10" width="2" height="1" fill="#fff0a8"/>
        <rect x="48" y="11" width="3" height="1" fill="#ffe27a"/>
        <rect x="47" y="12" width="3" height="1" fill="#fff0a8"/>
        <rect x="45" y="13" width="9" height="1" fill="#ffd84d"/>
        <rect x="46" y="14" width="7" height="1" fill="#fff0a8"/>
        <rect x="51" y="15" width="2" height="1" fill="#fff0a8"/>
        <rect x="50" y="16" width="2" height="1" fill="#ffe27a"/>
        <rect x="49" y="17" width="2" height="1" fill="#fff0a8"/>
        <rect x="48" y="18" width="2" height="1" fill="#ffe27a"/>
        <rect x="47" y="19" width="2" height="1" fill="#fff0a8"/>
        <rect x="46" y="20" width="2" height="1" fill="#ffd84d"/>
        <rect x="45" y="21" width="1" height="1" fill="#ffe27a"/>
        <rect x="44" y="22" width="1" height="1" fill="#fff0a8" opacity="0.85"/>
        </g>

        <!-- distant horizon -->
        <path d="M5 35 L13 32 L20 34 L28 30 L37 33 L46 31 L55 34 L64 31 L73 33 L91 29 L91 42 L5 42 Z" fill="#3b4a73"/>
        <path d="M5 38 L12 36 L22 37 L30 34 L40 37 L50 35 L62 38 L72 35 L83 37 L91 34 L91 42 L5 42 Z" fill="#2d3858"/>
        <!-- tiny skyline -->
        <rect x="9" y="32" width="3" height="10" fill="#273049"/>
        <rect x="14" y="35" width="4" height="7" fill="#394261"/>
        <rect x="22" y="31" width="4" height="11" fill="#273049"/>
        <rect x="31" y="34" width="3" height="8" fill="#394261"/>
        <rect x="38" y="30" width="4" height="12" fill="#273049"/>
        <rect x="51" y="33" width="3" height="9" fill="#394261"/>
        <rect x="57" y="29" width="5" height="13" fill="#273049"/>
        <rect x="65" y="34" width="4" height="8" fill="#394261"/>
        <rect x="74" y="31" width="3" height="11" fill="#273049"/>
        <rect x="82" y="35" width="5" height="7" fill="#394261"/>
        <!-- water/low land band -->
        <rect x="5" y="39" width="86" height="3" fill="#2f4f78"/>
        <rect x="5" y="41" width="86" height="1" fill="#20283f"/>
    <rect x="12" y="16" width="1" height="2" fill="#6fa4d4" opacity="0.95"/>
        <rect x="11" y="18" width="1" height="2" fill="#6fa4d4" opacity="0.75"/>
        <rect x="21" y="20" width="1" height="2" fill="#8bbce8" opacity="0.95"/>
        <rect x="20" y="22" width="1" height="2" fill="#8bbce8" opacity="0.75"/>
        <rect x="32" y="17" width="1" height="2" fill="#6fa4d4" opacity="0.95"/>
        <rect x="31" y="19" width="1" height="2" fill="#6fa4d4" opacity="0.75"/>
        <rect x="41" y="22" width="1" height="2" fill="#8bbce8" opacity="0.95"/>
        <rect x="40" y="24" width="1" height="2" fill="#8bbce8" opacity="0.75"/>
        <rect x="55" y="18" width="1" height="2" fill="#6fa4d4" opacity="0.95"/>
        <rect x="54" y="20" width="1" height="2" fill="#6fa4d4" opacity="0.75"/>
        <rect x="64" y="23" width="1" height="2" fill="#8bbce8" opacity="0.95"/>
        <rect x="63" y="25" width="1" height="2" fill="#8bbce8" opacity="0.75"/>
        <rect x="78" y="19" width="1" height="2" fill="#6fa4d4" opacity="0.95"/>
        <rect x="77" y="21" width="1" height="2" fill="#6fa4d4" opacity="0.75"/>
        <rect x="16" y="30" width="1" height="2" fill="#8bbce8" opacity="0.95"/>
        <rect x="15" y="32" width="1" height="2" fill="#8bbce8" opacity="0.75"/>
        <rect x="29" y="27" width="1" height="2" fill="#6fa4d4" opacity="0.95"/>
        <rect x="28" y="29" width="1" height="2" fill="#6fa4d4" opacity="0.75"/>
        <rect x="37" y="33" width="1" height="2" fill="#8bbce8" opacity="0.95"/>
        <rect x="36" y="35" width="1" height="2" fill="#8bbce8" opacity="0.75"/>
        <rect x="50" y="29" width="1" height="2" fill="#6fa4d4" opacity="0.95"/>
        <rect x="49" y="31" width="1" height="2" fill="#6fa4d4" opacity="0.75"/>
        <rect x="61" y="34" width="1" height="2" fill="#8bbce8" opacity="0.95"/>
        <rect x="60" y="36" width="1" height="2" fill="#8bbce8" opacity="0.75"/>
        <rect x="73" y="30" width="1" height="2" fill="#6fa4d4" opacity="0.95"/>
        <rect x="72" y="32" width="1" height="2" fill="#6fa4d4" opacity="0.75"/>
        <rect x="84" y="35" width="1" height="2" fill="#8bbce8" opacity="0.95"/>
        <rect x="83" y="37" width="1" height="2" fill="#8bbce8" opacity="0.75"/>

        <!-- animated driving rain (CSS-driven) -->
        <g>
          <rect class="rain" style="--d:0.5s"        x="22" y="7" width="1" height="4" fill="#8bbce8"/>
          <rect class="rain" style="--d:0.6s;--b:-0.25s" x="34" y="7" width="1" height="4" fill="#6fa4d4"/>
          <rect class="rain" style="--d:0.55s;--b:-0.4s" x="58" y="7" width="1" height="4" fill="#8bbce8"/>
          <rect class="rain" style="--d:0.5s;--b:-0.15s"  x="70" y="7" width="1" height="4" fill="#6fa4d4"/>
          <rect class="rain" style="--d:0.62s;--b:-0.5s" x="82" y="7" width="1" height="4" fill="#8bbce8"/>
        </g>

        <!-- lightning sky flash, synced with the bolt -->
        <rect class="flash-sky" x="5" y="6" width="86" height="36" fill="#eaf0ff" opacity="0"/>

        <rect x="5" y="6" width="86" height="36" fill="#0d1224" opacity="0.24"/>

      </g>
    </g>
  </g>
  <!-- ====== /weather-controlled region ====== -->

  <!-- window mullions: preserved from the current assets -->
  <rect x="25" y="6" width="2" height="36" fill="#3a4266"/>
  <rect x="47" y="6" width="2" height="36" fill="#3a4266"/>
  <rect x="69" y="6" width="2" height="36" fill="#3a4266"/>
  <rect x="5" y="23" width="86" height="2" fill="#3a4266"/>

  <!-- windowsill: preserved from the current assets -->
  <rect x="1" y="42" width="92" height="1" fill="#5a6796"/>
  <rect x="1" y="43" width="92" height="2" fill="#46507a"/>
  <rect x="1" y="45" width="92" height="1" fill="#2b3150"/>
</svg>